# xmcd CD database file generated by LOLA_Freedb v0.9beta0
# 
# Track frame offsets:
#      150
#      10939
#      23894
#      35754
#      46841
#      58913
#      68802
#      80937
#      93927
#      105009
#      117146
#      126056
# 
# Disc length: 1861 seconds
# 
# Revision: 0 
# Processed by: cddbd v1.5.1PL2 Copyright (c) Steve Scherf et al.
# Submitted via: LOLA_Freedb v0.9beta0
# 
DISCID=9607430c
DTITLE=Sandie Shaw - Puppet on a string
DYEAR=1900
DGENRE=
TTITLE0=Puppet on a string
TTITLE1=Tomorrow
TTITLE2=Keep in touch
TTITLE3=Hurting you
TTITLE4=Down dismal ways
TTITLE5=Girl don't come
TTITLE6=(There's) always somthings there to remind me
TTITLE7=Tell the boys
TTITLE8=I know
TTITLE9=Long live Love
TTITLE10=Stop before you start
TTITLE11=Message understood
EXTD=
EXTT0=
EXTT1=
EXTT2=
EXTT3=
EXTT4=
EXTT5=
EXTT6=
EXTT7=
EXTT8=
EXTT9=
EXTT10=
EXTT11=
PLAYORDER=
